<svg
   width="500"
   height="500"
   xmlns="http://www.w3.org/2000/svg"
   >
  <defs
     />
  <g
     transform="translate(-526.16017,4.5110112)">
    <path
       d="m 954.19232,44.738323 c 1.54659,1.432207 3.08876,2.869201 4.625,4.3125 0.60071,0.53625 1.20141,1.0725 1.82032,1.625 6.05328,5.630966 10.57761,12.556678 15.17968,19.374998 0.87205,1.28778 0.87205,1.28778 1.76172,2.60156 8.67445,13.61502 14.26669,30.308619 14.42579,46.460939 0.153,4.96398 0.153,4.96398 2.5508,9.11328 2.2465,1.73932 2.2465,1.73932 4.7148,3.22657 7.04717,4.42068 12.84407,11.17757 16.54687,18.59765 0.3184,0.62778 0.6368,1.25555 0.9648,1.90235 3.8167,9.16357 3.5863,21.27086 0.035,30.47265 -2.9493,6.0725 -6.8048,11.36014 -11,16.625 -0.7025,0.89461 -1.4051,1.78922 -2.1289,2.71094 -6.45777,8.06359 -13.4716,15.5993 -20.53514,23.12891 -0.81211,0.87785 -1.62422,1.7557 -2.46094,2.66015 -0.72445,0.77344 -1.4489,1.54688 -2.19531,2.34375 -1.69626,2.17752 -2.51181,3.40859 -2.67969,6.15625 1.19451,1.69221 2.39671,3.37998 3.65235,5.02735 4.4808,6.55885 5.27684,14.23638 4.34765,21.97265 -2.59362,11.44417 -8.16064,21.30764 -18,28 -2.24218,0.6875 -2.24218,0.6875 -4,1 0.23977,0.83918 0.23977,0.83918 0.48438,1.69531 2.91628,13.0349 -1.28713,28.97058 -8.23828,40.11719 -7.28014,10.48568 -16.25787,18.77505 -29.2461,21.1875 -11.92712,0.92682 -21.70749,-0.71927 -31.14062,-8.33984 -3.08832,-2.75743 -6.01353,-5.65424 -8.85938,-8.66016 -3.7073,2.77723 -6.52172,5.67123 -9.375,9.3125 -2.58507,3.22921 -5.14148,6.32194 -8.125,9.1875 -2.76489,2.67042 -5.16368,5.49596 -7.5625,8.5 -4.39036,5.45971 -9.10373,10.55504 -13.91308,15.64673 -3.02485,3.20392 -5.993,6.42315 -8.83692,9.79077 -7.02783,8.06203 -14.49571,13.23171 -24.1875,17.6875 -1.73117,0.81417 -1.73117,0.81417 -3.49731,1.64478 -9.47274,4.42557 -19.07005,8.57455 -28.69019,12.66772 -0.67394,0.28692 -1.34787,0.57384 -2.04223,0.86945 -7.41019,3.14324 -14.86261,6.1751 -22.37574,9.06415 -0.65075,0.25567 -1.3015,0.51134 -1.97197,0.77476 -5.49507,2.07876 -10.62124,3.04032 -16.42256,1.85414 -3.5,-1.8125 -3.5,-1.8125 -6,-4 -0.52976,-0.4539 -1.05952,-0.9078 -1.60533,-1.37546 -2.59288,-3.02024 -2.4045,-6.77915 -2.39467,-10.62454 0.40027,-2.81016 1.16502,-5.41935 2.03516,-8.11719 0.22985,-0.75898 0.4597,-1.51797 0.69652,-2.29995 0.75987,-2.49158 1.54458,-4.97449 2.33082,-7.45786 0.54142,-1.75032 1.08177,-3.50098 1.6211,-5.25195 1.74392,-5.63338 3.52871,-11.25344 5.3164,-16.87305 0.62756,-1.98206 1.255,-3.96415 1.88233,-5.94629 1.85679,-5.85634 3.73343,-11.70615 5.61767,-17.55371 0.29642,-0.92424 0.59283,-1.84847 0.89823,-2.80072 0.8497,-2.64172 1.70856,-5.28028 2.57052,-7.91803 0.24754,-0.77236 0.49507,-1.54472 0.75011,-2.34048 1.67555,-5.07954 3.79553,-9.70283 6.28114,-14.44077 -0.49629,-0.48726 -0.99258,-0.97453 -1.5039,-1.47656 -12.65074,-13.20285 -17.01752,-28.85133 -16.91822,-46.73023 0.33186,-12.11752 4.37487,-21.44376 10.42212,-31.79321 0.67832,-1.32744 1.34949,-2.65871 2,-4 -0.83402,-0.75023 -1.66804,-1.50047 -2.52734,-2.27344 -24.3752,-22.08593 -40.57904,-48.52697 -42.67969,-82.02832 -0.095,-3.31896 -0.1223,-6.62798 -0.10547,-9.94824 0.006,-1.18022 0.0113,-2.36043 0.0171,-3.57641 0.12944,-9.36497 0.9744,-18.10785 3.29541,-27.17359 0.18804,-0.76264 0.37609,-1.52528 0.56983,-2.31103 6.50793,-25.736629 18.81393,-46.970999 37.43017,-65.688967 0.48195,-0.485977 0.9639,-0.971953 1.46045,-1.472657 54.50475,-54.1909718 148.1506,-55.1164878 204.91455,-4.839843 z"
       fill="#020201"
       />
    <path
       d="m 938.62982,51.269573 c 18.07956,15.554738 34.66051,36.412958 38.1875,60.781247 0.18752,3.05253 0.15307,5.9387 0,9 -1.11117,-0.0348 -2.22234,-0.0696 -3.36718,-0.10547 -13.49409,-0.29906 -24.06883,1.12248 -34.32813,10.59375 -4.68342,4.55333 -9.12162,9.31782 -13.36328,14.28516 -2.58622,2.96609 -5.26392,5.84295 -7.94141,8.72656 -3.7891,4.08544 -7.52173,8.20395 -11.16797,12.41797 -2.83203,3.2185 -5.74231,6.36497 -8.64477,9.51978 -2.9153,3.17023 -5.81116,6.35628 -8.68726,9.56225 -3.31001,3.68831 -6.64714,7.35066 -10,11 -4.86944,5.30123 -9.69324,10.64193 -14.5,16 -2.24523,2.49557 -4.49132,4.99037 -6.73828,7.48438 -1.5425,1.71566 -3.08142,3.43455 -4.61719,5.15625 -1.52108,1.70197 -3.05067,3.39639 -4.58984,5.08203 -1.25809,1.39442 -2.48961,2.81417 -3.67187,4.27344 -1.44532,1.6914 -1.44532,1.6914 -4.38282,4.0039 -3.5625,-0.125 -3.5625,-0.125 -5.58593,-0.55078 -3.05094,-0.56773 -5.9997,-0.6882 -9.10157,-0.76172 -1.61455,-0.0561 -1.61455,-0.0561 -3.26172,-0.11328 -3.77669,0.52709 -5.40164,1.72804 -8.05078,4.42578 -0.45292,3.62339 0.0833,6.51373 1,10 1.34192,-0.087 1.34192,-0.087 2.71094,-0.17578 8.17602,-0.30508 14.58033,0.1673 21.28906,5.17578 3.46443,3.713 3.51363,6.62415 3.34766,11.53125 -0.70248,4.98843 -3.29859,7.59046 -7.03516,10.71875 -11.82368,6.24648 -25.93028,4.4156 -38.3125,0.75 -4.4232,-1.80794 -8.59684,-3.59684 -12,-7 -3.59412,-0.4688 -5.35164,-0.44361 -8.375,1.625 -1.77536,2.31196 -1.77536,2.31196 -2.375,5.1875 1.1773,5.00351 4.67111,7.2928 8.75,10.1875 1.98022,1.17654 3.87475,2.09677 6,3 -3.45922,4.08012 -6.97371,8.09563 -10.5625,12.0625 -3.23554,3.57987 -6.3875,7.1988 -9.4375,10.9375 -6.96723,-3.10822 -10.36916,-9.07104 -13.23828,-15.88672 -3.78596,-10.5036 -3.58139,-25.68275 0.96875,-35.82812 2.91446,-5.24604 6.11509,-10.02935 10.08203,-14.53516 2.23826,-2.81381 3.1875,-4.17376 3.1875,-7.75 -2.24985,-4.75059 -5.64464,-7.5014 -9.625,-10.75 -1.26897,-1.06658 -2.5359,-2.1356 -3.80078,-3.20703 -0.6144,-0.5203 -1.2288,-1.0406 -1.86181,-1.57666 -18.68822,-16.00248 -31.78721,-39.76093 -33.71241,-64.46631 -1.93398,-36.86806 8.51287,-68.861549 32.875,-96.687499 45.72221,-49.023197 131.55949,-57.4291968 183.9375,-14.093748 z"
       fill="#83ce51"
       />
    <path
       d="m 652.44136,345.56732 c -17.23613,-0.53774 -33.51439,18.25624 -33.51439,18.25624 0,0 -14.61121,-11.14154 -23.23561,-14.14686 -13.52981,-3.81122 -25.58353,-1.80023 -37.87891,4.55469 -11.22736,6.82131 -18.89724,18.64873 -22.33594,31.16796 -2.85642,15.80325 -0.0258,29.76124 8.07031,43.6211 14.14629,22.97242 38.55858,37.18229 64.19727,43.52734 0.70457,0.17132 1.38843,0.33762 2.07227,0.50391 21.58933,5.46342 44.87467,4.4744 66.48046,-0.40625 0.85697,-0.20204 1.68778,-0.39765 2.51954,-0.59375 3.67498,-0.85973 7.31911,-1.778 10.93164,-2.87305 15.71596,-5.13451 42.17654,-15.77109 50.20117,-31.32226 l 0.86719,-1.80469 2,-1 c -3.95695,-0.93104 -6.43553,-1.5668 -9.6875,-4.0625 -2.23922,-1.87611 -3.40117,-2.8404 -6.3125,-2.9375 -0.43828,0.41969 -0.86368,0.82702 -1.28907,1.23437 -19.7908,20.42338 -50.0207,29.45567 -77.5409,30.14453 4.48756,-4.07598 4.40436,-3.16672 20.41004,-21.47265 15.88482,-18.65558 28.2989,-28.58091 24.18577,-59.21543 -2.23288,-11.76779 -8.34023,-20.07437 -15.45334,-25.87832 -7.3088,-5.14374 -16.04818,-7.54024 -24.6875,-7.29688 z m 2.01175,17.59641 c 4.9168,0.057 8.58769,0.65173 13.26559,3.32156 4.10586,3.06601 6.0935,8.72698 7.72042,13.60774 1.69333,16.15927 -4.51325,29.30002 -14.31026,41.89617 -9.35678,11.24956 -19.44129,22.0611 -30.58594,31.55469 -3.30015,3.90479 -7.15135,4.94231 -11.99805,4.76953 -4.33935,-0.41701 -8.33435,-1.50618 -12.47851,-2.82422 -1.29816,-0.40436 -1.2967,-0.40583 -2.6211,-0.81836 -11.90754,-3.84563 -22.31261,-9.14699 -31.6289,-17.61914 -1.28197,-1.16015 -1.28198,-1.16015 -2.58985,-2.34375 -10.71157,-10.18002 -18.35605,-22.1152 -18.91015,-37.21875 0.40657,-10.32445 3.73164,-17.86344 10.95703,-25.26563 7.04473,-6.0167 14.20448,-7.98668 23.39453,-7.59375 7.30147,0.97836 13.40384,3.95061 19.14844,9.42188 4.97755,4.43515 7.71446,7.703 12.40182,12.05862 4.38718,4.00502 5.56145,2.85678 9.72318,-3.55862 11.26116,-11.6163 18.81677,-19.45327 28.51175,-19.38797 z"
       style="fill:#fa4347;fill-opacity:1"
 />
    <path
       d="m 929.17279,165.51957 c 4.1581,0.60611 7.35099,1.98389 10.95703,4.03125 0.65444,0.36166 1.30888,0.72333 1.98316,1.09595 5.7263,3.24934 10.76544,7.05154 15.70434,11.40405 1.28004,1.06541 1.28004,1.06541 2.58594,2.15235 6.92532,5.91667 13.74565,12.89734 16.41406,21.84765 -0.10888,4.86843 -2.8893,7.55412 -6.125,10.875 -1.01957,1.05595 -2.0391,2.11194 -3.05859,3.16797 -0.49226,0.5058 -0.98452,1.01159 -1.4917,1.53272 -1.45665,1.51558 -1.45665,1.51558 -3.04736,3.72509 -2.73976,3.52881 -4.38828,4.57686 -8.91016,5.19922 -2.10518,0.12198 -4.2051,0.18806 -6.31323,0.23462 -9.08441,0.21813 -15.68821,3.05874 -22.29614,9.26538 -6.17044,7.02059 -7.93313,13.73512 -7.88282,22.875 -0.004,0.69481 -0.008,1.38961 -0.0117,2.10547 0.006,3.22549 0.13305,6.00611 0.98829,9.12891 0.14843,2.89062 0.14843,2.89062 -2.13282,6.03906 -1.056,1.09213 -2.13005,2.16702 -3.21875,3.22656 -1.12178,1.14907 -2.24288,2.2988 -3.36328,3.44922 -0.54479,0.54834 -1.08958,1.09667 -1.65088,1.66162 -1.80244,1.8368 -3.49847,3.74831 -5.17334,5.70166 -2.56963,2.96977 -5.18069,5.89761 -7.8125,8.8125 -2.67048,2.9587 -5.32298,5.92927 -7.9375,8.9375 -3.65429,4.19692 -7.40995,8.29903 -11.16015,12.41016 -1.97177,2.17695 -3.916,4.37073 -5.83985,6.58984 -2.96133,3.40939 -6.00402,6.74044 -9.0625,10.0625 -3.64414,3.95862 -7.23913,7.95177 -10.76562,12.01563 -3.52939,4.03812 -7.14081,8.00344 -10.73438,11.98437 -1.68778,1.87475 -3.37529,3.74974 -5.0625,5.625 -1.3125,1.45834 -2.625,2.91667 -3.9375,4.375 -3.41984,-1.13995 -3.71888,-1.73796 -5.625,-4.625 -4.36427,-6.03868 -9.99381,-10.10712 -16.5,-13.625 -4.52656,-2.69801 -6.52599,-6.66491 -9.17968,-11.09765 -4.48512,-7.01704 -10.38742,-9.66711 -18.02344,-12.57422 -2.67188,-1.07813 -2.67188,-1.07813 -5.67188,-3.07813 3.01152,-3.54266 6.0472,-7.05683 9.13282,-10.53515 2.63204,-2.98215 5.08609,-6.03859 7.48437,-9.21094 9.75472,-12.33 9.75472,-12.33 18.05859,-13.40625 4.92511,-0.269 9.81983,-0.0708 14.74414,0.13965 8.97231,0.0441 17.15181,-3.89737 23.58008,-9.98731 0.55301,-0.51305 1.10602,-1.02609 1.67578,-1.55469 5.47025,-5.67385 8.4123,-13.21641 8.82422,-21.07031 -0.23204,-4.97107 -2.22205,-9.02694 -4.5,-13.375 -0.66819,-1.33257 -1.33507,-2.6658 -2,-4 0.38745,-0.4125 0.77489,-0.825 1.17408,-1.25 9.23952,-9.80765 9.23952,-9.80765 18.19702,-19.87109 4.23862,-4.88915 8.6205,-9.65483 12.95703,-14.45703 3.39532,-3.76489 6.78246,-7.53381 10.10937,-11.35938 3.65308,-4.19553 7.40756,-8.29623 11.15625,-12.40625 1.99274,-2.19978 3.95963,-4.4158 5.90625,-6.65625 0.54657,-0.61875 1.09313,-1.2375 1.65625,-1.875 1.44395,-1.66421 2.85379,-3.35803 4.25,-5.0625 0.86406,-1.02128 1.72864,-2.04211 2.59375,-3.0625 0.78375,-0.94875 1.5675,-1.8975 2.375,-2.875 2.625,-2.125 2.625,-2.125 5.98047,-2.65625 z"
       fill="#eec075"
       />
    <path
       d="m 961.81732,187.05082 c 6.44945,2.61152 11.14197,9.67398 14.0625,15.8125 1.03772,3.52825 1.07253,4.74206 -0.0625,8.1875 -1.65577,2.10266 -3.26891,3.97005 -5.125,5.875 -1.01957,1.05595 -2.0391,2.11194 -3.05859,3.16797 -0.49226,0.5058 -0.98452,1.01159 -1.4917,1.53272 -1.45665,1.51558 -1.45665,1.51558 -3.04736,3.72509 -2.73976,3.52881 -4.38828,4.57686 -8.91016,5.19922 -2.10518,0.12198 -4.2051,0.18806 -6.31323,0.23462 -9.08441,0.21813 -15.68821,3.05874 -22.29614,9.26538 -6.17044,7.02059 -7.93313,13.73512 -7.88282,22.875 -0.004,0.69481 -0.008,1.38961 -0.0117,2.10547 0.006,3.22549 0.13305,6.00611 0.98829,9.12891 0.14843,2.89062 0.14843,2.89062 -2.13282,6.03906 -1.056,1.09213 -2.13005,2.16702 -3.21875,3.22656 -1.12178,1.14907 -2.24288,2.2988 -3.36328,3.44922 -0.54479,0.54834 -1.08958,1.09667 -1.65088,1.66162 -1.80244,1.8368 -3.49847,3.74831 -5.17334,5.70166 -2.56963,2.96977 -5.18069,5.89761 -7.8125,8.8125 -2.67048,2.9587 -5.32298,5.92927 -7.9375,8.9375 -3.65429,4.19692 -7.40995,8.29903 -11.16015,12.41016 -1.97177,2.17695 -3.916,4.37073 -5.83985,6.58984 -2.96133,3.40939 -6.00402,6.74044 -9.0625,10.0625 -3.64414,3.95862 -7.23913,7.95177 -10.76562,12.01563 -3.52939,4.03812 -7.14081,8.00344 -10.73438,11.98437 -1.68778,1.87475 -3.37529,3.74974 -5.0625,5.625 -1.3125,1.45834 -2.625,2.91667 -3.9375,4.375 -3.41984,-1.13995 -3.71888,-1.73796 -5.625,-4.625 -4.36427,-6.03868 -9.99381,-10.10712 -16.5,-13.625 -5.32285,-3.17242 -7.8734,-8.50937 -10.875,-13.75 -0.66,-0.99 -1.32,-1.98 -2,-3 1.32,0 2.64,0 4,0 0.43313,0.92813 0.43313,0.92813 0.875,1.875 1.0622,2.25826 1.0622,2.25826 3.125,4.125 0.39188,1.11375 0.78375,2.2275 1.1875,3.375 1.78113,4.44354 4.59102,5.63374 8.8125,7.625 0.22559,-0.54527 0.45117,-1.09055 0.6836,-1.65234 1.70783,-3.04573 3.98694,-5.40088 6.3789,-7.91016 3.62737,-3.87426 7.11297,-7.79536 10.4375,-11.9375 3.635,-4.51778 7.46711,-8.77818 11.41407,-13.01953 2.99035,-3.23259 5.8238,-6.54753 8.58593,-9.98047 4.11653,-5.11246 8.49229,-9.92576 12.94922,-14.73828 4.22412,-4.57343 8.28511,-9.27843 12.32813,-14.01172 5.33833,-6.24826 10.7071,-12.45287 16.22656,-18.54297 4.07119,-4.50141 8.03609,-9.09505 12.00391,-13.6875 6.98105,-8.07673 14.02484,-16.08324 21.22656,-23.96484 3.79845,-4.1783 7.4814,-8.39981 11.01562,-12.80469 4.64561,-5.74588 9.65408,-11.10417 14.70703,-16.48828 3.44245,-3.67216 6.77419,-7.43427 10.04297,-11.26172 z"
       fill="#eec075"
       />
    <path
       d="m 953.37592,179.06254 c 2.58404,1.04602 4.21059,2.16773 6.2539,4.05078 0.60457,0.54785 1.20914,1.0957 1.83203,1.66016 0.44731,0.42152 0.89461,0.84304 1.35547,1.27734 -5.70751,6.68197 -11.4609,13.31214 -17.375,19.8125 -3.05359,3.37691 -5.96929,6.81967 -8.8125,10.375 -4.30656,5.3323 -8.94844,10.28446 -13.65454,15.26001 -4.18161,4.44385 -8.07693,9.04021 -11.88452,13.8103 -2.64686,3.19261 -5.43912,6.21659 -8.27344,9.24219 -4.45555,4.75739 -8.63134,9.65819 -12.71484,14.74219 -3.42863,4.1378 -7.08409,8.05452 -10.73438,11.99609 -4.22411,4.57343 -8.2851,9.27843 -12.32812,14.01172 -5.33714,6.24686 -10.70494,12.44987 -16.22266,18.53906 -4.00303,4.42523 -7.90994,8.93148 -11.78515,13.46875 -1.02995,1.20573 -2.0599,2.41146 -3.08985,3.61719 -0.5182,0.60707 -1.0364,1.21414 -1.57031,1.8396 -3.0685,3.58425 -6.18618,7.11239 -9.36719,10.5979 -3.98005,4.37952 -7.63421,8.95741 -11.1875,13.6875 -3.6494,-0.91235 -5.71593,-1.72321 -8.4375,-4.375 -1.5625,-2.625 -1.5625,-2.625 -1.39453,-4.48437 3.2151,-8.27172 11.98717,-15.52429 18.02783,-21.94239 4.06495,-4.33927 7.84532,-8.84484 11.56202,-13.4873 2.48125,-2.99998 5.09086,-5.86244 7.74218,-8.71094 4.28963,-4.60996 8.30412,-9.37784 12.25391,-14.28515 3.12776,-3.78052 6.45883,-7.35966 9.78125,-10.96875 2.39192,-2.66485 4.65739,-5.39442 6.90234,-8.1836 4.13662,-5.12501 8.5257,-9.95813 13,-14.78515 2.66117,-2.88428 5.24949,-5.82072 7.82032,-8.78516 2.05719,-2.35239 4.14815,-4.67254 6.24218,-6.99219 4.81015,-5.33562 9.55981,-10.71587 14.21485,-16.1875 4.9009,-5.75515 9.827,-11.46154 14.97265,-17 3.42659,-3.68928 6.71112,-7.45623 9.875,-11.375 1.47595,-1.81512 2.95523,-3.62754 4.4375,-5.4375 0.42201,-0.51611 0.84402,-1.03222 1.27881,-1.56396 1.30555,-1.57848 2.63449,-3.13391 3.97119,-4.68604 0.78891,-0.93328 1.57782,-1.86656 2.39063,-2.82812 2.35937,-1.92188 2.35937,-1.92188 4.91797,-1.91016 z"
       fill="#cf903b"
       />
    <path
       d="m 766.81732,346.05082 c 6.87762,-0.59805 13.41075,0.98815 18.79688,5.50781 3.37653,3.74204 5.70906,7.97232 7.92969,12.47657 2.36699,3.74653 5.63139,5.2979 9.64843,6.89062 5.50859,2.40095 9.8526,5.02293 12.5625,10.625 1.11741,3.68086 1.46757,4.98204 0.0625,8.5 -2.35659,1.48553 -4.42702,2.5559 -6.96484,3.62891 -0.70734,0.31638 -1.41468,0.63276 -2.14345,0.95872 -2.26896,1.00953 -4.54853,1.99214 -6.82921,2.97487 -1.5014,0.66432 -3.00206,1.33032 -4.50195,1.99805 -21.2993,9.43945 -21.2993,9.43945 -25.56055,9.43945 -0.495,-1.17562 -0.99,-2.35125 -1.5,-3.5625 -2.49858,-5.02384 -6.14044,-8.02755 -10.5,-11.4375 -0.99,-0.80437 -1.98,-1.60875 -3,-2.4375 -0.66,-0.51562 -1.32,-1.03125 -2,-1.5625 1.99733,-8.70833 4.58168,-17.15892 7.44385,-25.61279 0.69152,-2.04284 1.3763,-4.08785 2.06006,-6.1333 3.33125,-9.92422 3.33125,-9.92422 4.49609,-12.25391 z"
       fill="#fde7c3"
       />
    <path
       d="m 985.07904,140.90238 c 8.32299,5.21509 13.97789,11.26751 18.17576,20.21094 1.8268,9.53993 -0.3772,15.6391 -5.43747,23.9375 -2.2058,3.11721 -4.5212,6.09587 -7.00001,9 -3.2061,-3.10268 -6.18237,-6.3328 -9.125,-9.6875 -11.75781,-13.09657 -25.44234,-23.91491 -40.875,-32.3125 3.21688,-6.96213 8.17091,-12.60107 15.41797,-15.3789 10.0663,-2.4214 19.95113,-0.81756 28.84375,4.23046 z"
       fill="#fc7571"
       />
    <path
       d="m 928.81732,287.05082 c 0.68578,0.27973 1.37157,0.55945 2.07813,0.84766 2.05992,0.8124 4.13465,1.58773 6.21875,2.33594 1.13953,0.41378 2.27906,0.82757 3.45312,1.2539 1.14985,0.41121 2.29969,0.82242 3.48438,1.2461 0.91265,0.43441 1.82531,0.86882 2.76562,1.3164 3.26535,9.79603 0.17108,20.29673 -4.09765,29.32031 -4.27496,7.39061 -10.51327,14.36546 -18.90235,16.67969 -7.27971,0.97309 -13.64782,-0.2891 -20,-4 -3.72194,-2.99535 -5.65229,-5.68369 -6.875,-10.3125 1.3749,-5.79419 4.93287,-9.3384 8.875,-13.6875 0.6828,-0.75507 0.6828,-0.75507 1.3794,-1.52539 2.98681,-3.2923 6.01254,-6.5467 9.05078,-9.7915 2.62529,-2.81474 5.22202,-5.65553 7.81982,-8.49561 0.92185,-1.00653 1.84373,-2.01304 2.76563,-3.01953 0.65484,-0.71543 1.30969,-1.43086 1.98437,-2.16797 z"
       fill="#84d052"
       />
    <path
       d="m 855.06732,148.48832 c 3.75,0.5625 3.75,0.5625 5.75,2.5625 0.76095,4.42414 0.44031,8.08269 -1.5,12.125 -7.19213,8.27095 -14.37777,13.42979 -25.59765,14.25391 -10.62704,0.44705 -19.83807,-0.77787 -28.33985,-7.69141 -4.24779,-4.08207 -7.19302,-7.94284 -8,-13.9375 0.4375,-2.75 0.4375,-2.75 1.5,-4.625 3.30398,-1.91844 5.17377,-1.8037 8.9375,-1.125 2.19895,1.8663 4.09019,3.90938 6.05469,6.01953 4.77624,4.86256 9.3292,5.2013 15.88281,5.48047 6.30426,-0.15376 10.46145,-1.11598 15.0625,-5.5 1.01778,-1.25664 2.01808,-2.52764 3,-3.8125 2.26163,-2.8581 3.57807,-3.67075 7.25,-3.75 z"
       fill="#010201"
       />
    <path
       d="m 950.56732,245.73832 c 0.70383,-0.029 1.40766,-0.058 2.13282,-0.0879 6.07875,-0.0734 9.46225,2.01096 13.99218,6.08789 2.22575,4.57515 1.70983,9.16498 0.39844,13.98047 -2.16492,5.95794 -4.47313,9.43188 -10.27344,12.33203 -7.41034,0.69543 -13.88623,0.58164 -20,-4 -4.50209,-4.8484 -5.35582,-7.99163 -5.28125,-14.46094 0.55109,-4.97509 3.28823,-7.66425 6.90625,-10.85156 4.05662,-2.88233 7.27059,-2.93475 12.125,-3 z"
       fill="#86d153"
       />
    <path
       d="m 887.81732,114.05082 c 4.25946,3.58182 7.61374,7.35182 8.4336,12.97266 0.001,1.01965 0.003,2.03929 0.004,3.08984 0.0193,1.02223 0.0387,2.04445 0.0586,3.09766 -0.61299,3.50897 -1.73363,4.6635 -4.4961,6.83984 -2.3125,0.625 -2.3125,0.625 -5,0 -1.18051,-0.95882 -2.32356,-1.96458 -3.4375,-3 -2.46099,-2.25279 -3.31474,-2.95045 -6.6875,-3.625 -3.02873,0.434 -3.02873,0.434 -5.4375,2.6875 -2.4375,1.9375 -2.4375,1.9375 -5,1.9375 -3.14101,-1.28862 -4.51798,-2.15627 -6.4375,-5 -0.87422,-4.56541 -0.5035,-8.66281 1.625,-12.8125 2.89795,-3.88935 5.78171,-6.18364 10.3125,-7.9375 5.72855,-0.69437 10.66214,-0.35014 16.0625,1.75 z"
       fill="#010301"
       />
    <path
       d="m 787.02435,113.93754 c 4.69193,2.70032 9.18721,6.30264 11.79297,11.11328 0.627,3.10908 0.77182,5.91274 0,9 -1.32422,1.74219 -1.32422,1.74219 -3,3 -5.21284,0.57921 -7.65195,-0.32428 -12,-3 -3,-0.75 -3,-0.75 -6,0 -0.80437,0.99 -1.60875,1.98 -2.4375,3 -2.5625,3 -2.5625,3 -6.1875,3.625 -3.375,-0.625 -3.375,-0.625 -5.3125,-2.0625 -1.96523,-4.73968 -1.9434,-9.14687 -0.18359,-13.97265 4.78536,-9.46018 12.63263,-15.00026 23.32812,-10.70313 z"
       fill="#010201"
       />
    <path
       d="m 813.81732,156.05082 c 1.456,0.47567 1.456,0.47567 2.94141,0.96094 4.31444,1.2327 8.531,1.48041 12.99609,1.66406 0.77924,0.0387 1.55848,0.0773 2.36133,0.11719 1.90005,0.0932 3.80058,0.17657 5.70117,0.25781 0.33,-0.66 0.66,-1.32 1,-2 1.65,0 3.3,0 5,0 -3.08583,3.39442 -5.55564,4.84703 -10.17187,5.33594 -7.43097,0.0811 -12.5771,-0.16859 -18.82813,-4.33594 -0.33,-0.66 -0.66,-1.32 -1,-2 z"
       fill="#95dd63"
       />
    <path
       d="m 853.81732,282.05082 c 0,3.21015 -0.60688,4.21377 -2,7 -0.12375,0.84563 -0.2475,1.69125 -0.375,2.5625 -0.78517,3.06218 -1.98647,3.82034 -4.625,5.4375 -1.32,-1.65 -2.64,-3.3 -4,-5 1.06541,-0.95713 1.06541,-0.95713 2.15235,-1.93359 1.37865,-1.23944 1.37865,-1.23944 2.78515,-2.50391 1.37479,-1.23556 1.37479,-1.23556 2.77735,-2.49609 1.6685,-1.50595 1.6685,-1.50595 3.28515,-3.06641 z"
       fill="#f1c880"
       />
    <path
       d="m 844.81732,235.05082 c -1.32812,2.04688 -1.32812,2.04688 -4,4 -3.63514,0.22546 -7.14846,-0.27043 -10.75,-0.75 -0.98355,-0.11344 -1.96711,-0.22687 -2.98047,-0.34375 -2.42619,-0.28266 -4.84814,-0.58534 -7.26953,-0.90625 3.35361,-2.23573 4.30132,-2.19953 8.1875,-2.0625 3.51622,0.0745 6.83302,0.0164 10.3125,-0.5 3.5,-0.4375 3.5,-0.4375 6.5,0.5625 z"
       fill="#92d667"
       />
    <path
       d="m 784.81732,320.05082 c 0.33,1.32 0.66,2.64 1,4 -2.475,1.485 -2.475,1.485 -5,3 3.11017,3.28789 6.01619,5.83736 10,8 -2,1 -2,1 -5.03906,0.004 -1.18336,-0.47567 -2.36672,-0.95133 -3.58594,-1.44141 -1.78277,-0.70963 -1.78277,-0.70963 -3.60156,-1.43359 -0.91523,-0.37254 -1.83047,-0.74508 -2.77344,-1.12891 0.93442,-1.2731 1.87267,-2.54339 2.8125,-3.8125 0.52207,-0.70769 1.04414,-1.41539 1.58203,-2.14453 1.43676,-1.82828 2.92363,-3.44194 4.60547,-5.04297 z"
       fill="#f0d38f"
       />
    <path
       d="m 895.81732,30.050823 c 8.0038,1.356576 14.73832,4.430889 22,8 -1.98,0.99 -1.98,0.99 -4,2 -0.33,-0.99 -0.66,-1.98 -1,-3 -5.55494,-1.027038 -5.55494,-1.027038 -11,0 0.66,-1.32 1.32,-2.64 2,-4 -0.94875,-0.12375 -1.8975,-0.2475 -2.875,-0.375 -3.125,-0.625 -3.125,-0.625 -5.125,-2.625 z"
       fill="#9edf6d"
       />
    <path
       d="m 914.81732,178.05082 c 0.66,1.32 1.32,2.64 2,4 -3.63,2.97 -7.26,5.94 -11,9 -0.66,-0.33 -1.32,-0.66 -2,-1 3.63,-3.96 7.26,-7.92 11,-12 z"
       fill="#f1cf87"
       />
    <path
       d="m 780.81732,289.05082 c 3.45925,1.24918 6.14693,2.67528 9,5 -2.97,2.475 -2.97,2.475 -6,5 0.33,-1.98 0.66,-3.96 1,-6 -1.32,0 -2.64,0 -4,0 0,-1.32 0,-2.64 0,-4 z"
       fill="#95dd63"
       />
    <path
       d="m 953.25482,179.05082 c 3.30104,1.28821 4.57381,3.12744 6.5625,6 -0.66,0 -1.32,0 -2,0 -0.33,0.99 -0.66,1.98 -1,3 -0.99,-2.31 -1.98,-4.62 -3,-7 0,0.66 0,1.32 0,2 -1.875,0.625 -1.875,0.625 -4,1 -0.66,-0.66 -1.32,-1.32 -2,-2 1.77157,-2.33101 2.44242,-3 5.4375,-3 z"
       fill="#d99c44"
       />
    <path
       d="m 961.81732,187.05082 c 4.5,2.25 4.5,2.25 6,6 -1.98,-1.32 -3.96,-2.64 -6,-4 -0.26812,0.59813 -0.53625,1.19625 -0.8125,1.8125 -1.17243,2.15975 -2.38119,3.5454 -4.1875,5.1875 -0.66,-0.33 -1.32,-0.66 -2,-1 2.31,-2.64 4.62,-5.28 7,-8 z"
       fill="#eec780"
       />
    <path
       d="m 857.81732,275.05082 c 0.33,0.66 0.66,1.32 1,2 -0.33,0.66 -0.66,1.32 -1,2 1.65,-0.33 3.3,-0.66 5,-1 -1.36983,3.16116 -1.98906,3.99271 -5,6 0,-0.99 0,-1.98 0,-3 -0.99,-0.33 -1.98,-0.66 -3,-1 0.99,-1.65 1.98,-3.3 3,-5 z"
       fill="#f2c87e"
       />
    <path
       d="m 833.81732,25.050823 c 2.97,0.33 5.94,0.66 9,1 0,0.66 0,1.32 0,2 -0.92812,0.185625 -0.92812,0.185625 -1.875,0.375 -2.31621,0.496973 -2.31621,0.496973 -4.125,2.625 0,-0.66 0,-1.32 0,-2 -1.65,-0.33 -3.3,-0.66 -5,-1 0.66,-0.99 1.32,-1.98 2,-3 z"
       fill="#7dc949"
       />
    <path
       d="m 961.81732,272.05082 c 0,0.99 0,1.98 0,3 -4.411,3.9699 -9.43297,3.29187 -15,3 0,-0.33 0,-0.66 0,-1 2.97,0 5.94,0 9,0 0.33,-1.32 0.66,-2.64 1,-4 1.65,-0.33 3.3,-0.66 5,-1 z"
       fill="#9ee66d"
       />
    <path
       d="m 909.81732,158.05082 c 0.99,0.33 1.98,0.66 3,1 -2.56428,4.17883 -5.0193,7.12506 -9,10 0.30938,-0.55687 0.61875,-1.11375 0.9375,-1.6875 1.12012,-2.4379 1.62288,-4.67474 2.0625,-7.3125 0.66,0 1.32,0 2,0 0.33,-0.66 0.66,-1.32 1,-2 z"
       fill="#91d762"
       />
    <path
       d="m 933.81732,330.05082 c 0.99,0.33 1.98,0.66 3,1 -8.07745,7.85194 -8.07745,7.85194 -14,8 3,-2 3,-2 5.0625,-2.875 2.37502,-1.37904 2.82851,-2.66938 3.9375,-5.125 0.66,-0.33 1.32,-0.66 2,-1 z"
       fill="#9de06b"
       />
    <path
       d="m 834.81732,26.050823 c -0.99,1.485 -0.99,1.485 -2,3 -3.03906,0.292968 -3.03906,0.292968 -6.625,0.1875 -1.18851,-0.02707 -2.37703,-0.05414 -3.60156,-0.08203 -0.91523,-0.0348 -1.83047,-0.06961 -2.77344,-0.105468 4.73995,-3.159967 9.41158,-3.133058 15,-3 z"
       fill="#99de6a"
       />
    <path
       d="m 922.81732,294.05082 c 0.33,0.66 0.66,1.32 1,2 -3.80412,3.9194 -7.81576,7.49103 -12,11 1.53644,-3.6807 3.78151,-5.98775 6.625,-8.75 0.81727,-0.79922 1.63453,-1.59844 2.47657,-2.42187 0.93972,-0.90493 0.93972,-0.90493 1.89843,-1.82813 z"
       fill="#9de06b"
       />
    <path
       d="m 723.81732,431.05082 c 0,0.99 0,1.98 0,3 -1.96498,1.38442 -3.97048,2.71204 -6,4 -1.36887,1.29683 -2.71693,2.61823 -4,4 -0.66,-0.66 -1.32,-1.32 -2,-2 3.96,-2.97 7.92,-5.94 12,-9 z"
       fill="#e83b3e"
       />
    <path
       d="m 856.81732,243.05082 c 0.33,0.66 0.66,1.32 1,2 0.66,0.33 1.32,0.66 2,1 -1.65,1.65 -3.3,3.3 -5,5 -0.66,-1.32 -1.32,-2.64 -2,-4 1.32,-1.32 2.64,-2.64 4,-4 z"
       fill="#f1cb81"
       />
    <path
       d="m 779.81732,328.05082 c 3.63,2.31 7.26,4.62 11,7 -2,1 -2,1 -4.38281,0.22266 -0.90492,-0.38285 -1.80984,-0.76571 -2.74219,-1.16016 -0.91008,-0.38027 -1.82015,-0.76055 -2.75781,-1.15234 -1.04801,-0.45053 -1.04801,-0.45053 -2.11719,-0.91016 0.33,-1.32 0.66,-2.64 1,-4 z"
       fill="#e9ca87"
       />
    <path
       d="m 928.81732,287.05082 c 4.875,1.75 4.875,1.75 6,4 -1.09312,-0.0412 -2.18625,-0.0825 -3.3125,-0.125 -3.77642,-0.19574 -3.77642,-0.19574 -6.6875,2.125 1.15174,-2.468 2.04784,-4.04783 4,-6 z"
       fill="#9bdd6a"
       />
    <path
       d="m 795.81732,340.05082 c 1.32,0 2.64,0 4,0 0.28875,0.59813 0.5775,1.19625 0.875,1.8125 1.17242,2.38078 1.17242,2.38078 3.125,5.1875 -0.66,0.66 -1.32,1.32 -2,2 -1.98,-2.97 -3.96,-5.94 -6,-9 z"
       fill="#f4d28c"
       />
    <path
       d="m 901.81732,193.05082 c 0.99,0.33 1.98,0.66 3,1 -2.12055,3.18084 -3.6305,4.31525 -7,6 -0.66,-0.33 -1.32,-0.66 -2,-1 1.98,-1.98 3.96,-3.96 6,-6 z"
       fill="#f6d38a"
       />
    <path
       d="m 903.81732,330.05082 c 0.66,0.33 1.32,0.66 2,1 -0.99,1.485 -0.99,1.485 -2,3 0.99,0 1.98,0 3,0 0.33,0.99 0.66,1.98 1,3 -3.65316,-1.24977 -4.78066,-1.67099 -7,-5 0.99,-0.66 1.98,-1.32 3,-2 z"
       fill="#95e064"
       />
    <path
       d="m 958.12982,137.36332 c 0.55688,0.22688 1.11375,0.45375 1.6875,0.6875 -0.63937,0.28875 -1.27875,0.5775 -1.9375,0.875 -2.21456,0.95324 -2.21456,0.95324 -3.0625,3.125 -1.32,-0.66 -2.64,-1.32 -4,-2 4.43077,-3.07692 4.43077,-3.07692 7.3125,-2.6875 z"
       fill="#f78683"
       />
    <path
       d="m 844.81732,235.05082 c -1.28965,1.37563 -2.62689,2.70767 -4,4 -0.66,0 -1.32,0 -2,0 0,-1.32 0,-2.64 0,-4 3,-1 3,-1 6,0 z"
       fill="#98e164"
       />
  </g>
</svg>
